<svg xmlns="http://www.w3.org/2000/svg" viewBox="0 0 64 64" id="rich"><g><g><path fill="#ffdaaa" d="M57,53.27c0,1.04-.65,1.96-1.63,2.31l-15.37,5.42h-15l-12-4h-4v-13l4-1.6,1-.4h6l14.5,3c.676,.14,1.32,.28,1.77,.73,.45,.45,.73,1.08,.73,1.77,0,1.38-1.12,2.5-2.5,2.5h-11.5l9,5h8l13.86-4.08c.23-.07,.47-.1,.69-.1,1.31,0,2.45,1.06,2.45,2.45Z"></path><circle cx="44" cy="33" r="10" fill="#ffde55"></circle><path fill="#ebbf00" d="M54,33c0,5.52-4.48,10-10,10-3.79,0-7.09-2.11-8.78-5.22,1.42,.78,3.05,1.22,4.78,1.22,5.52,0,10-4.48,10-10,0-1.73-.44-3.36-1.22-4.78,3.11,1.69,5.22,4.99,5.22,8.78Z"></path><polygon fill="#009698" points="30 11 28 11 28 16 22 16 22 11 20 11 25 6 30 11"></polygon><polygon fill="#009698" points="21 29 19 29 19 34 13 34 13 29 11 29 16 24 21 29"></polygon><polygon fill="#009698" points="13 8 11 8 11 13 5 13 5 8 3 8 8 3 13 8"></polygon><polygon fill="#57a4ff" points="9 41 9 59 3 61 3 39 9 41"></polygon><polygon fill="#57a4ff" points="9 41 9 59 3 61 3 39 9 41"></polygon><path fill="#ffb655" d="M57,53.27c0,1.04-.65,1.96-1.63,2.31l-15.37,5.42h-15l-12-4h-4v-13l4-1.6v5.834c0,3.443,2.203,6.501,5.47,7.589l6.53,2.177h15l15.37-5.42c.46-.16,.85-.45,1.11-.82,.33,.41,.52,.94,.52,1.51Z"></path><rect width="6" height="3" x="5" y="10" fill="#007579"></rect><rect width="6" height="3" x="22" y="13" fill="#007579"></rect><rect width="6" height="3" x="13" y="31" fill="#007579"></rect><polygon points="53 17 53 19 51 19 51 21 53 21 53 23 55 23 55 21 57 21 57 19 55 19 55 17 53 17"></polygon><polygon points="39 15 39 17 37 17 37 19 39 19 39 21 41 21 41 19 43 19 43 17 41 17 41 15 39 15"></polygon><polygon points="28 25 28 27 26 27 26 29 28 29 28 31 30 31 30 29 32 29 32 27 30 27 30 25 28 25"></polygon><polygon points="60 27 58 27 58 29 56 29 56 31 58 31 58 33 60 33 60 31 62 31 62 29 60 29 60 27"></polygon><path d="M61.383 2.076c-.124-.051-.254-.067-.383-.067v-.009h-7v2h4.586l-10.586 10.586-6.293-6.293c-.373-.373-.972-.392-1.368-.043l-16.296 14.378-7.336-7.335c-.391-.391-1.023-.391-1.414 0L1.293 29.293l1.414 1.414 13.293-13.293 7.293 7.293c.374.375.974.392 1.369.043l16.295-14.378 6.336 6.335c.391.391 1.023.391 1.414 0l11.293-11.293v3.586h2V3c0-.404-.243-.769-.617-.924zM3 9h1v4c0 .552.448 1 1 1h6c.552 0 1-.448 1-1v-4h1c.404 0 .769-.244.924-.617.155-.374.069-.804-.217-1.09L8.707 2.293c-.391-.391-1.023-.391-1.414 0L2.293 7.293c-.286.286-.372.716-.217 1.09.155.374.52.617.924.617zm5-4.586l2.649 2.649c-.379.142-.649.508-.649.937v4H6v-4c0-.429-.27-.794-.649-.937l2.649-2.649z"></path><path d="M20 12h1v4c0 .552.448 1 1 1h6c.552 0 1-.448 1-1v-4h1c.404 0 .769-.244.924-.617.155-.374.069-.804-.217-1.09l-5-5c-.391-.391-1.023-.391-1.414 0l-5 5c-.286.286-.372.716-.217 1.09.155.374.52.617.924.617zm5-4.586l2.649 2.649c-.379.142-.649.508-.649.937v4h-4v-4c0-.429-.27-.794-.649-.937l2.649-2.649zM13 35h6c.552 0 1-.448 1-1v-4h1c.404 0 .769-.244.924-.617.155-.374.069-.804-.217-1.09l-5-5c-.391-.391-1.023-.391-1.414 0l-5 5c-.286.286-.372.716-.217 1.09.155.374.52.617.924.617h1v4c0 .552.448 1 1 1zm3-9.586l2.649 2.649c-.379.142-.649.508-.649.937v4h-4v-4c0-.429-.27-.794-.649-.937l2.649-2.649zM33 33c0 6.065 4.935 11 11 11s11-4.935 11-11-4.935-11-11-11-11 4.935-11 11zm11-9c4.963 0 9 4.038 9 9s-4.037 9-9 9-9-4.038-9-9 4.037-9 9-9z"></path><path d="M43 40h2v-2c1.103 0 2-.897 2-2v-2c0-1.103-.897-2-2-2h-2v-2h4v-2h-2v-2h-2v2c-1.103 0-2 .897-2 2v2c0 1.103.897 2 2 2h2v2h-4v2h2v2zM56.62 50.51c-.88-.66-1.99-.86-3.04-.55l-13.72 4.04h-7.6l-5.4-3h7.64c1.93 0 3.5-1.57 3.5-3.5 0-1.73-1.26-3.06-3.3-3.48 0 0-14.63-3.02-14.7-3.02h-6c-.13 0-4 1.52-4 1.52v-1.52c0-.43-.28-.81-.68-.95l-6-2c-.31-.1-.64-.05-.9.14-.27.19-.42.49-.42.81v22c0 .32.15.62.42.81.17.13.37.19.58.19.11 0 .21-.02.32-.05l6-2c.4-.14.68-.52.68-.95v-1h2.84l11.84 3.95c.11.03 15.55.03 15.65-.01l15.37-5.42c1.38-.49 2.3-1.79 2.3-3.25 0-1.1-.5-2.1-1.38-2.76zm-48.62 7.77l-4 1.33v-19.22l4 1.33v16.56zm47.04-3.65l-15.21 5.37h-14.67s-12.05-4-12.16-4h-3v-11.32l4.19-1.68h5.71l14.4 2.98c.4.08 1.7.44 1.7 1.52 0 .83-.67 1.5-1.5 1.5h-11.5c-.46 0-.85.31-.97.75-.11.44.09.9.48 1.12 0 0 9.32 5.13 9.49 5.13h8c.1 0 14.15-4.12 14.15-4.12.44-.13.9-.04 1.27.23.37.28.58.7.58 1.16 0 .61-.39 1.16-.96 1.36z"></path></g></g></svg>