<svg xmlns="http://www.w3.org/2000/svg" enable-background="new 0 0 64 64" viewBox="0 0 64 64" id="business-earning"><circle cx="32" cy="32" r="32" fill="#392c71"></circle><circle cx="32" cy="32" r="28.27" fill="#473080"></circle><g><path fill="#f3b434" d="M34.77 21.77l-.51 1.93c-.02.08-.01.17.05.24.05.07.13.11.22.11h3.72c.09 0 .17-.04.22-.11.05-.07.07-.16.05-.24L38 21.77c-.03-.12-.14-.21-.27-.21h-2.7C34.91 21.56 34.8 21.64 34.77 21.77zM30.06 24.04h3.72c.08 0 .17-.04.22-.11.06-.07.07-.16.05-.24l-.51-1.93c-.03-.12-.14-.21-.27-.21h-2.7c-.13 0-.24.08-.27.21l-.51 1.93c-.02.08 0 .17.05.24C29.89 24 29.97 24.04 30.06 24.04zM25.83 21.77l-.51 1.93c-.02.08-.01.17.04.24.06.07.14.11.22.11h3.72c.09 0 .17-.04.22-.11.05-.07.07-.16.04-.24l-.51-1.93c-.03-.12-.14-.21-.27-.21h-2.7C25.97 21.56 25.86 21.64 25.83 21.77zM36.23 20.89c.06-.07.07-.16.05-.24l-.51-1.92c-.03-.12-.14-.21-.27-.21H32.8c-.13 0-.24.08-.27.21l-.51 1.92c-.02.09-.01.17.05.24C32.12 20.96 32.2 21 32.29 21h3.71C36.09 21 36.18 20.96 36.23 20.89zM31.75 20.89c.06-.07.07-.16.05-.24l-.51-1.93c-.03-.12-.14-.21-.27-.21h-2.7c-.13 0-.24.08-.27.21l-.51 1.93c-.02.08-.01.17.04.24.06.07.13.11.22.11h3.72C31.62 21 31.7 20.96 31.75 20.89zM30.06 17.96h3.72c.08 0 .17-.04.22-.11.06-.07.07-.16.05-.24l-.51-1.93c-.03-.12-.14-.21-.27-.21h-2.7c-.13 0-.24.09-.27.21l-.51 1.93c-.02.08 0 .17.05.24C29.89 17.93 29.97 17.96 30.06 17.96zM31.18 13.26c.07 0 .14-.02.2-.04v1.02c0 .28.22.5.5.5.28 0 .5-.22.5-.5v-1.02c.06.03.13.04.2.04.13 0 .25-.05.34-.13.2-.19.21-.5.03-.71l-.7-.76c0 0-.01 0-.01-.01-.09-.09-.22-.15-.36-.15s-.27.06-.36.15c0 0-.01 0-.01.01l-.7.76c-.19.2-.17.52.03.71C30.93 13.21 31.05 13.26 31.18 13.26zM26.73 14.8c.04.01.07.01.11.01.17 0 .31-.08.4-.21l.51.89c.09.15.26.25.43.25.09 0 .17-.02.25-.07.12-.07.2-.17.23-.3.03-.13.02-.26-.05-.38l-.51-.89c.2-.02.37-.15.43-.34.08-.26-.07-.54-.33-.62l-.99-.31c0 0-.01 0-.01 0-.04-.01-.09-.02-.14-.02 0 0 0 0 0 0l0 0c0 0 0 0 0 0-.07 0-.14.02-.2.05-.02.01-.04.01-.05.02-.01.01-.02.02-.02.02-.05.03-.09.07-.12.11-.01.02-.02.03-.02.05-.02.04-.05.08-.06.12 0 0 0 .01 0 .01 0 0 0 .01 0 .01l-.23 1.01C26.3 14.47 26.46 14.74 26.73 14.8zM23.08 16.98c0 0 0 .01.01.01 0 0 0 .01 0 .01l.31.99c.06.21.26.35.48.35.05 0 .1-.01.15-.02.13-.04.23-.13.29-.24.03-.06.05-.12.05-.18l.88.51c.08.04.16.07.25.07.18 0 .34-.1.43-.25.07-.12.09-.25.05-.38-.03-.13-.12-.24-.23-.3l-.88-.51c.05-.04.1-.08.13-.14.07-.11.09-.25.06-.38-.05-.23-.25-.39-.49-.39-.04 0-.08 0-.11.01l-1.01.23c0 0 0 0-.01 0-.06.01-.11.04-.16.07-.01.01-.02.02-.03.02-.05.04-.09.08-.12.13 0 0 0 0 0 0 0 0 0 0 0 .01-.03.06-.05.12-.06.18 0 .02 0 .03 0 .05C23.07 16.88 23.07 16.93 23.08 16.98zM21.86 21.92c.02.04.05.08.08.12 0 0 0 .01.01.01l.76.7c.09.09.21.13.34.13.14 0 .27-.06.37-.16.09-.1.14-.23.13-.36 0-.07-.02-.13-.04-.19h1.02c.28 0 .5-.22.5-.5 0-.28-.22-.5-.5-.5H23.5c.03-.06.04-.12.04-.19.01-.13-.04-.26-.13-.36-.09-.1-.23-.16-.37-.16-.13 0-.25.05-.34.13l-.76.7c0 0 0 .01-.01.01-.04.03-.06.08-.09.12-.01.01-.02.03-.03.04-.03.06-.04.13-.04.2 0 .07.02.14.04.2C21.84 21.89 21.85 21.91 21.86 21.92zM40.28 20.93c0 .07.02.13.04.19h-1.02c-.28 0-.5.22-.5.5 0 .28.22.5.5.5h1.02c-.03.06-.04.12-.04.19 0 .13.04.26.13.36.09.1.23.16.37.16.13 0 .25-.05.34-.13l.76-.7c0 0 0-.01.01-.01.04-.04.06-.08.09-.12.01-.01.02-.02.02-.04.03-.06.04-.13.04-.2 0-.07-.01-.14-.04-.2-.01-.01-.02-.02-.03-.04-.02-.04-.05-.09-.09-.12 0 0 0-.01-.01-.01l-.76-.7c-.09-.09-.21-.13-.34-.13-.14 0-.27.06-.37.16C40.32 20.67 40.28 20.79 40.28 20.93zM38.3 18.41c.09 0 .17-.02.25-.07l.88-.51c.01.06.02.12.05.18.06.12.17.21.29.24.05.01.1.02.15.02.22 0 .41-.14.48-.35l.31-.99c0 0 0-.01 0-.01 0 0 0-.01.01-.01.01-.05.01-.09.01-.14 0-.02.01-.03 0-.05-.01-.06-.03-.13-.06-.18 0 0 0 0 0-.01 0 0 0 0 0 0 0 0 0 0 0 0-.03-.05-.07-.1-.12-.13-.01-.01-.02-.02-.03-.02-.05-.03-.1-.06-.16-.07 0 0 0 0-.01 0l-1-.23c-.04-.01-.08-.01-.12-.01-.23 0-.43.16-.48.39-.03.13-.01.26.06.38.03.06.08.1.13.14l-.88.51c-.12.07-.2.17-.23.3-.03.13-.02.26.05.38C37.96 18.32 38.12 18.41 38.3 18.41zM35.33 15.64c.08.04.16.07.25.07.18 0 .34-.1.43-.25l.51-.89c.09.13.24.21.4.21.04 0 .07 0 .11-.01.27-.06.44-.33.38-.6l-.23-1.01c0 0 0-.01 0-.01-.01-.05-.04-.09-.06-.13-.01-.01-.01-.03-.02-.04-.04-.05-.09-.1-.15-.13-.08-.04-.16-.07-.25-.07 0 0-.01 0-.01 0-.04 0-.09.01-.13.02 0 0-.01 0-.01 0l-.99.31c-.13.04-.23.13-.29.24-.06.12-.07.25-.04.38.06.19.23.32.43.34l-.51.89c-.07.12-.08.25-.05.38C35.13 15.47 35.22 15.58 35.33 15.64z"></path><g><path fill="#4ab477" d="M42.03,31.49v4.52h7.21v-4.46c0-2.01-1.63-3.72-3.63-3.7c-0.99,0.01-1.88,0.41-2.53,1.07
							C42.43,29.58,42.03,30.49,42.03,31.49z"></path><path fill="#e2e0ee" d="M35.08 44.88c0 .65.36 1.28.98 1.59.88.44 1.95.08 2.39-.8l3.01-6.01c.05-.1.15-.16.26-.16h5.6c1.06 0 1.91-.86 1.91-1.92v-1.65h-8.87c-.63 0-1.21.36-1.49.92l-3.62 7.23C35.14 44.33 35.08 44.6 35.08 44.88zM43.08 34.44l3.02-3.02c.53-.53.53-1.4 0-1.93l0 0c-.53-.53-1.4-.53-1.94 0l-2.38 2.38h-5.03c-.76 0-1.37.61-1.37 1.37l0 0c0 .76.61 1.37 1.37 1.37h3.63 2.32C42.84 34.59 42.98 34.54 43.08 34.44z"></path><path fill="#f0c3a5" d="M42.43,23.91c0,1.72,1.39,3.11,3.11,3.11s3.11-1.39,3.11-3.11c0-1.72-1.39-3.11-3.11-3.11
							S42.43,22.2,42.43,23.91z"></path><path fill="#f16459" d="M42.39,39.84h7.66V28.8c0-0.32,0.26-0.58,0.58-0.58c0.32,0,0.58,0.26,0.58,0.58v11.62v6.81
							c0,0.32-0.26,0.58-0.58,0.58c-0.32,0-0.58-0.26-0.58-0.58V41h-7.09v6.23c0,0.32-0.26,0.58-0.58,0.58
							c-0.32,0-0.58-0.26-0.58-0.58v-6.81C41.82,40.1,42.08,39.84,42.39,39.84z"></path><g><path fill="#b66128" d="M21.97,31.49v4.52h-7.21v-4.46c0-2.01,1.63-3.72,3.63-3.7c0.99,0.01,1.88,0.41,2.53,1.07
							C21.57,29.58,21.97,30.49,21.97,31.49z"></path><path fill="#e2e0ee" d="M28.92 44.88c0 .65-.36 1.28-.98 1.59-.88.44-1.95.08-2.39-.8l-3.01-6.01c-.05-.1-.15-.16-.26-.16h-5.6c-1.06 0-1.91-.86-1.91-1.92v-1.65h8.87c.63 0 1.21.36 1.49.92l3.62 7.23C28.86 44.33 28.92 44.6 28.92 44.88zM20.92 34.44l-3.02-3.02c-.53-.53-.53-1.4 0-1.93l0 0c.53-.53 1.4-.53 1.94 0l2.38 2.38h5.03c.76 0 1.37.61 1.37 1.37l0 0c0 .76-.61 1.37-1.37 1.37h-3.63-2.32C21.15 34.59 21.02 34.54 20.92 34.44z"></path><path fill="#f0c3a5" d="M21.57,23.91c0,1.72-1.39,3.11-3.11,3.11c-1.72,0-3.11-1.39-3.11-3.11c0-1.72,1.39-3.11,3.11-3.11
							C20.18,20.81,21.57,22.2,21.57,23.91z"></path><path fill="#f16459" d="M21.6,39.84h-7.66V28.8c0-0.32-0.26-0.58-0.58-0.58c-0.32,0-0.58,0.26-0.58,0.58v11.62v6.81
							c0,0.32,0.26,0.58,0.58,0.58c0.32,0,0.58-0.26,0.58-0.58V41h7.09v6.23c0,0.32,0.26,0.58,0.58,0.58c0.32,0,0.58-0.26,0.58-0.58
							v-6.81C22.18,40.1,21.92,39.84,21.6,39.84z"></path></g><path fill="#f3b434" d="M25.05,34.94h13.9c0.32,0,0.58,0.26,0.58,0.58c0,0.32-0.26,0.58-0.58,0.58h-6.37v10.56
					c0,0.32-0.26,0.58-0.58,0.58c-0.32,0-0.58-0.26-0.58-0.58V36.09h-6.37c-0.32,0-0.58-0.26-0.58-0.58
					C24.47,35.2,24.73,34.94,25.05,34.94z"></path></g></g></svg>