<svg xmlns="http://www.w3.org/2000/svg" width="32" height="32" id="shop"><g style="line-height:125%" font-family="sans-serif" font-size="45.121" font-weight="400" letter-spacing="0" word-spacing="0"><path style="isolation:auto;mix-blend-mode:normal" fill="#25b39e" d="m8.555 1034.802 1.576 6.592h9.351l1.983-6.592z" color="#000" overflow="visible" transform="translate(0 -1020.362)"></path><path style="isolation:auto;mix-blend-mode:normal" fill="#f8b84e" d="M4.248 1032.411A11.25 11.25 0 0 0 2 1039.136a11.25 11.25 0 0 0 5.043 9.373 3.501 3.501 0 0 1 1.17-2.242l-.686-2.865a1.471 1.471 0 0 1-.05-.16l-2.582-10.83zm19.889 3.924-2.104 6.99a1.5 1.5 0 0 1-1.437 1.069H10.85l.236.992h8.05c.075 0 .15 0 .223.014.048 0 .093-.014.141-.014.918 0 1.755.37 2.383.96a11.25 11.25 0 0 0 2.617-7.21 11.252 11.252 0 0 0-.363-2.8zM10.5 1048.386c-.294 0-.5.205-.5.5a.48.48 0 0 0 .5.502.48.48 0 0 0 .5-.502c0-.295-.206-.5-.5-.5zm3.45 0c.023.165.05.33.05.5a3.43 3.43 0 0 1-.35 1.486 11.222 11.222 0 0 0 2.55-.382c-.12-.35-.2-.717-.2-1.104 0-.17.026-.335.05-.5zm5.55 0a.468.468 0 0 0-.48.395c.198-.12.393-.244.584-.375-.035-.01-.066-.02-.104-.02zm-2.904-19.024a3.141 3.122 0 0 1-3.141 3.123 3.141 3.122 0 0 1-3.141-3.123 3.141 3.122 0 0 1 3.14-3.122 3.141 3.122 0 0 1 3.142 3.122z" color="#000" overflow="visible" transform="translate(0 -1020.362)"></path><path style="line-height:125%;text-indent:0;text-align:start;text-decoration-line:none;text-decoration-style:solid;text-decoration-color:#000;text-transform:none;block-progression:tb;isolation:auto;mix-blend-mode:normal" d="M3 1030.41v1h2.684l2.765 11.6a.5.5 0 0 0 .487.383h11.66a.5.5 0 0 0 .48-.356l2.885-9.592a.5.5 0 0 0-.479-.644H7.043l-.479-2.006a.5.5 0 0 0-.486-.385H3zm4.281 3.39h15.53l-2.586 8.593H9.33l-2.049-8.592z" color="#000" font-size="medium" overflow="visible" transform="translate(0 -1020.362)"></path><path style="line-height:125%;text-indent:0;text-align:start;text-decoration-line:none;text-decoration-style:solid;text-decoration-color:#000;text-transform:none;block-progression:tb;isolation:auto;mix-blend-mode:normal" d="M6.053 1030.387a.5.5 0 0 0-.461.623l3.824 15.992a.5.5 0 0 0 .486.385h9.235a.5.5 0 1 0 0-1h-8.84l-3.733-15.61a.5.5 0 0 0-.511-.39z" color="#000" font-size="medium" overflow="visible" transform="translate(0 -1020.362)"></path><path style="line-height:125%;text-indent:0;text-align:start;text-decoration-line:none;text-decoration-style:solid;text-decoration-color:#000;text-transform:none;block-progression:tb;isolation:auto;mix-blend-mode:normal" d="M10.5 1046.385a2.507 2.507 0 0 0-2.5 2.5 2.509 2.509 0 0 0 2.5 2.502c1.375 0 2.5-1.127 2.5-2.502 0-1.375-1.125-2.5-2.5-2.5zm0 1c.834 0 1.5.665 1.5 1.5s-.666 1.502-1.5 1.502-1.5-.667-1.5-1.502.666-1.5 1.5-1.5z" color="#000" font-size="medium" overflow="visible" transform="translate(0 -1020.362)"></path><path fill="#f8b84e" d="M11 28.523a.5.5 0 0 1-.5.5.5.5 0 0 1-.5-.5.5.5 0 0 1 .5-.5.5.5 0 0 1 .5.5z"></path><path style="line-height:125%;text-indent:0;text-align:start;text-decoration-line:none;text-decoration-style:solid;text-decoration-color:#000;text-transform:none;block-progression:tb;isolation:auto;mix-blend-mode:normal" fill-rule="evenodd" d="M12.691 1035.2v1h10.073v-1H12.69zm1.6 2.398v1h7.992v-1h-7.992zm1.598 2.396v1h5.595v-1H15.89z" color="#000" font-size="medium" overflow="visible" transform="translate(0 -1020.362)"></path><path style="isolation:auto;mix-blend-mode:normal" fill="#25b39e" fill-rule="evenodd" d="m10.056 1021.338-.935 3.47h12.355a.35.35 0 0 1 .304.174l2.792 4.858a.345.345 0 0 1 0 .344l-.748 1.3 1.144-1.146-1.433-5.41-5.392-1.435z" color="#000" overflow="visible" transform="translate(0 -1020.362)"></path><path style="line-height:125%;text-indent:0;text-align:start;text-decoration-line:none;text-decoration-style:solid;text-decoration-color:#000;text-transform:none;block-progression:tb;isolation:auto;mix-blend-mode:normal" fill-rule="evenodd" d="M7.521 1024.654a.5.5 0 0 0-.5.5v8.049a.5.5 0 1 0 1 0V1025.654h13.167l2.503 4.358-1.687 2.935a.5.5 0 1 0 .867.498l1.832-3.183a.5.5 0 0 0 0-.5l-2.793-4.856a.5.5 0 0 0-.433-.252H7.52z" color="#000" font-size="medium" overflow="visible" transform="translate(0 -1020.362)"></path><path style="line-height:125%;text-indent:0;text-align:start;text-decoration-line:none;text-decoration-style:solid;text-decoration-color:#000;text-transform:none;block-progression:tb;isolation:auto;mix-blend-mode:normal" fill-rule="evenodd" d="M22.676 1030.012c0-.845-.7-1.54-1.545-1.54a1.55 1.55 0 0 0-1.545 1.54c0 .845.7 1.539 1.545 1.539a1.55 1.55 0 0 0 1.545-1.54zm-1 0c0 .301-.237.539-.545.539a.535.535 0 0 1-.545-.54c0-.3.237-.538.545-.538.308 0 .545.237.545.539z" color="#000" font-size="medium" overflow="visible" transform="translate(0 -1020.362)"></path><path style="line-height:125%;text-indent:0;text-align:start;text-decoration-line:none;text-decoration-style:solid;text-decoration-color:#000;text-transform:none;block-progression:tb;isolation:auto;mix-blend-mode:normal" fill-rule="evenodd" d="M21.049 1030.6a2.564 2.564 0 0 1 .17-1.674.5.5 0 1 1 .906.422 1.57 1.57 0 0 0 .447 1.896c.573.458 1.38.468 1.965.025a1.569 1.569 0 0 0 .498-1.883 1.593 1.593 0 0 0-1.724-.935.5.5 0 1 1-.163-.987 2.6 2.6 0 0 1 2.805 1.524 2.58 2.58 0 0 1-.812 3.078c-.947.716-2.267.7-3.194-.041a2.578 2.578 0 0 1-.898-1.426z" color="#000" font-size="medium" overflow="visible" transform="translate(0 -1020.362)"></path><path style="line-height:125%;text-indent:0;text-align:start;text-decoration-line:none;text-decoration-style:solid;text-decoration-color:#000;text-transform:none;block-progression:tb;isolation:auto;mix-blend-mode:normal" fill-rule="evenodd" d="M25.316 1029.512v1h1.745v-1h-1.745z" color="#000" font-size="medium" overflow="visible" transform="translate(0 -1020.362)"></path><path style="line-height:125%;text-indent:0;text-align:start;text-decoration-line:none;text-decoration-style:solid;text-decoration-color:#000;text-transform:none;block-progression:tb;isolation:auto;mix-blend-mode:normal" fill-rule="evenodd" d="M26.559 1030.004a.5.5 0 0 1 .507-.492c.687 0 1.346.272 1.832.756.487.483.762 1.14.762 1.826a.5.5 0 1 1-1 0c0-.42-.168-.82-.467-1.117a1.597 1.597 0 0 0-1.127-.465.5.5 0 0 1-.507-.508z" color="#000" font-size="medium" overflow="visible" transform="translate(0 -1020.362)"></path><path style="line-height:125%;-inkscape-font-specification:'Bebas Neue Bold'" d="M9.286 1028.219c0 1.256 1.358 1.426 1.358 2.33 0 .314-.139.427-.36.427-.221 0-.36-.113-.36-.427v-.314h-.657v.27c0 .704.354 1.106 1.036 1.106s1.036-.402 1.036-1.106c0-1.256-1.358-1.426-1.358-2.33 0-.314.126-.433.347-.433.221 0 .348.119.348.433v.182h.657v-.138c0-.703-.348-1.105-1.024-1.105s-1.023.402-1.023 1.105zm3.987-1.055h-1.017l-.708 4.397h.638l.12-.798h.853l.12.798h.702l-.708-4.397zm-.543.779.334 2.223h-.67l.336-2.223zm1.568 3.618h1.839v-.629h-1.144v-3.768h-.695v4.397zm2.842-3.77h1.2v-.627h-1.895v4.397h1.896v-.629h-1.2v-1.287h.953v-.628h-.954v-1.225z" font-family="Bebas Neue" font-size="6.3" font-weight="700" transform="translate(0 -1020.362)"></path><path style="line-height:125%;text-indent:0;text-align:start;text-decoration-line:none;text-decoration-style:solid;text-decoration-color:#000;text-transform:none;block-progression:tb;isolation:auto;mix-blend-mode:normal" d="M19.5 1046.385a2.507 2.507 0 0 0-2.5 2.5 2.509 2.509 0 0 0 2.5 2.502c1.375 0 2.5-1.127 2.5-2.502 0-1.375-1.125-2.5-2.5-2.5zm0 1c.834 0 1.5.665 1.5 1.5s-.666 1.502-1.5 1.502-1.5-.667-1.5-1.502.666-1.5 1.5-1.5z" color="#000" font-size="medium" overflow="visible" transform="translate(0 -1020.362)"></path><path fill="#f8b84e" d="M20 28.523a.5.5 0 0 1-.5.5.5.5 0 0 1-.5-.5.5.5 0 0 1 .5-.5.5.5 0 0 1 .5.5z"></path></g></svg>