<svg xmlns="http://www.w3.org/2000/svg" xmlns:xlink="http://www.w3.org/1999/xlink" width="48" height="48" id="shop"><defs><linearGradient id="b" x1="1073.403" x2="1097.116" y1="516.451" y2="544.308" gradientTransform="translate(-1643.872 211.343) scale(1.53785)" gradientUnits="userSpaceOnUse" xlink:href="#a"></linearGradient><linearGradient id="a"><stop offset="0" stop-color="#16ff6a"></stop><stop offset="1" stop-color="#0090a5"></stop></linearGradient></defs><g font-family="sans-serif" font-size="45.121" font-weight="400" letter-spacing="0" transform="translate(0 -1004.362)" word-spacing="0" style="line-height:125%"><rect width="48" height="48" y="1004.362" fill="url(#b)" rx="10.144" ry="10.144"></rect><path fill="#fff" d="m18.766 1013.82-.75 2.718H28.953l-2.594-.687-7.593-2.031zm11.562 3.093 1.375 2.375-.281-2.093-1.094-.282zm-13.937.625v7.157h14.062l.281-.5a2.75 2.75 0 0 1-.437-.281 2.386 2.386 0 0 1-.469-.5 1.56 1.56 0 0 1-.344.03 1.532 1.532 0 0 1 0-3.062c.272 0 .527.063.75.188.022.01.043.018.063.03.018.011.044.02.062.031a.511.511 0 0 1 .094.094c.35.283.594.708.594 1.188 0 .37-.154.702-.375.969.075.097.15.17.25.25.095.076.206.136.312.187l.782-1.375a.493.493 0 0 1 0-.062v-.03l-2.47-4.313H16.392zm2.28 1.47c.677 0 1.032.39 1.032 1.093v.156h-.656v-.187c0-.315-.123-.438-.344-.438-.221 0-.375.124-.375.438 0 .904 1.375 1.087 1.375 2.343 0 .704-.349 1.094-1.031 1.094-.683 0-1.031-.39-1.031-1.093v-.282h.656v.313c0 .314.122.437.344.437.22 0 .375-.123.375-.437 0-.905-1.375-1.088-1.375-2.344 0-.703.355-1.094 1.03-1.094zm1.938.061h1.032l.687 4.375h-.687l-.125-.78h-.844l-.125.78h-.625l.687-4.375zm2.063 0h.687v3.75h1.125v.625h-1.812v-4.375zm2.125 0h1.906v.625h-1.219v1.22h.97v.624h-.97v1.281h1.22v.625h-1.907v-4.375zm-3.719.782-.312 2.218h.656l-.344-2.218zm-6.969.222a.442.442 0 0 0-.156.031h-2.906v1h2.687c1.165 5.108 3.657 15.25 3.657 15.25l.968-.28-.718-3-2.563-10.66-.469-1.937a.502.502 0 0 0-.093-.218h-.032a.5.5 0 0 0 0-.031h-.03v-.03h-.032a.5.5 0 0 0 0-.03h-.031a.479.479 0 0 0-.063-.062h-.031a.5.5 0 0 0-.188-.031zm18.782.59.093.906.063.094a.5.5 0 0 1 0 .5l-.719 1.25c.2-.052.39-.119.563-.25.584-.442.79-1.206.5-1.875a1.557 1.557 0 0 0-.5-.625zm-3.5.719a.522.522 0 0 0-.438.531c0 .28.192.501.469.531-.073-.344-.104-.711-.031-1.062zm4.968.406v1s.827.172 1.125.469c.3.297.47.675.47 1.094-.01.676 1.009.676 1 0 0-.686-.264-1.33-.75-1.813-.488-.484-1.845-.75-1.845-.75zm-18.03 3.906 2.062 8.594h10.187l.438-1.406h-4.782v-1h5.063l.437-1.375h-7.093v-1h7.375l.437-1.406h-9.406v-1h9.687l.438-1.407H16.328zm2.343 11.668-.969.282s-1.344 1.26-1.344 2.218c0 1.375 1.125 2.5 2.5 2.5s2.5-1.125 2.5-2.5c0-.555-.19-1.084-.5-1.5h5c-.309.416-.5.945-.5 1.5 0 1.375 1.125 2.5 2.5 2.5s2.5-1.125 2.5-2.5-1.125-2.5-2.5-2.5c-.075 0-.145-.01-.218 0a.41.41 0 0 0-.157 0h-8.812zm9.187 1.492a1 1 0 0 1 1 1 1 1 0 0 1-1 1 1 1 0 0 1-1-1 1 1 0 0 1 1-1zm-9 .2a1 1 0 0 1 1 1 1 1 0 0 1-1 1 1 1 0 0 1-1-1 1 1 0 0 1 1-1z" color="#000" font-size="medium" overflow="visible" style="line-height:125%;text-indent:0;text-align:start;text-decoration-line:none;text-decoration-style:solid;text-decoration-color:#000;text-transform:none;block-progression:tb;isolation:auto;mix-blend-mode:normal"></path></g></svg>